<mxfile host="app.diagrams.net" modified="2024-01-14T23:31:23.864Z" agent="Mozilla/5.0 (X11; Linux x86_64; rv:121.0) Gecko/20100101 Firefox/121.0" etag="Tj1k40-_fsCHJ2ytRAPp" version="22.1.18" type="device">
  <diagram name="Page-1" id="lbpZoGU8aWm_6NN-oRw6">
    <mxGraphModel dx="1488" dy="787" grid="1" gridSize="10" guides="1" tooltips="1" connect="1" arrows="1" fold="1" page="1" pageScale="1" pageWidth="850" pageHeight="1100" math="0" shadow="0">
      <root>
        <mxCell id="0" />
        <mxCell id="1" parent="0" />
        <mxCell id="c1LUgHqlMUX5LM21KsU8-1" value="HOST OS ili VM" style="swimlane;whiteSpace=wrap;html=1;align=left;startSize=23;" vertex="1" parent="1">
          <mxGeometry x="120" y="220" width="720" height="910" as="geometry" />
        </mxCell>
        <mxCell id="c1LUgHqlMUX5LM21KsU8-3" value="BODY_ECU1" style="swimlane;whiteSpace=wrap;html=1;" vertex="1" parent="c1LUgHqlMUX5LM21KsU8-1">
          <mxGeometry x="90" y="130" width="110" height="70" as="geometry" />
        </mxCell>
        <mxCell id="c1LUgHqlMUX5LM21KsU8-4" value="BODY_ECU2" style="swimlane;whiteSpace=wrap;html=1;" vertex="1" parent="c1LUgHqlMUX5LM21KsU8-1">
          <mxGeometry x="90" y="220" width="110" height="70" as="geometry" />
        </mxCell>
        <mxCell id="c1LUgHqlMUX5LM21KsU8-7" value="&lt;div&gt;vcan0&lt;/div&gt;" style="shape=delay;whiteSpace=wrap;html=1;" vertex="1" parent="c1LUgHqlMUX5LM21KsU8-1">
          <mxGeometry x="380" y="190" width="80" height="40" as="geometry" />
        </mxCell>
        <mxCell id="c1LUgHqlMUX5LM21KsU8-9" value="" style="endArrow=block;startArrow=block;endFill=1;startFill=1;html=1;rounded=0;exitX=1;exitY=0.5;exitDx=0;exitDy=0;entryX=0;entryY=0.5;entryDx=0;entryDy=0;" edge="1" parent="c1LUgHqlMUX5LM21KsU8-1" source="c1LUgHqlMUX5LM21KsU8-3" target="c1LUgHqlMUX5LM21KsU8-7">
          <mxGeometry width="160" relative="1" as="geometry">
            <mxPoint x="220" y="210" as="sourcePoint" />
            <mxPoint x="380" y="210" as="targetPoint" />
          </mxGeometry>
        </mxCell>
        <mxCell id="c1LUgHqlMUX5LM21KsU8-10" value="" style="endArrow=block;startArrow=block;endFill=1;startFill=1;html=1;rounded=0;entryX=0;entryY=0.5;entryDx=0;entryDy=0;exitX=1;exitY=0.5;exitDx=0;exitDy=0;" edge="1" parent="c1LUgHqlMUX5LM21KsU8-1" source="c1LUgHqlMUX5LM21KsU8-4" target="c1LUgHqlMUX5LM21KsU8-7">
          <mxGeometry width="160" relative="1" as="geometry">
            <mxPoint x="200" y="250" as="sourcePoint" />
            <mxPoint x="450" y="230" as="targetPoint" />
          </mxGeometry>
        </mxCell>
        <mxCell id="c1LUgHqlMUX5LM21KsU8-22" value="&lt;div&gt;CHASSIS CAN BUS&lt;/div&gt;" style="swimlane;horizontal=0;whiteSpace=wrap;html=1;rotation=-180;" vertex="1" parent="c1LUgHqlMUX5LM21KsU8-1">
          <mxGeometry x="70" y="310" width="490" height="200" as="geometry" />
        </mxCell>
        <mxCell id="c1LUgHqlMUX5LM21KsU8-5" value="&lt;div&gt;CHASSIS_ECU1&lt;/div&gt;" style="swimlane;whiteSpace=wrap;html=1;" vertex="1" parent="c1LUgHqlMUX5LM21KsU8-22">
          <mxGeometry x="20" y="20" width="110" height="70" as="geometry" />
        </mxCell>
        <mxCell id="c1LUgHqlMUX5LM21KsU8-18" value="" style="endArrow=block;startArrow=block;endFill=1;startFill=1;html=1;rounded=0;exitX=1;exitY=0.5;exitDx=0;exitDy=0;entryX=0;entryY=0.5;entryDx=0;entryDy=0;" edge="1" parent="c1LUgHqlMUX5LM21KsU8-22" source="c1LUgHqlMUX5LM21KsU8-5" target="c1LUgHqlMUX5LM21KsU8-8">
          <mxGeometry width="160" relative="1" as="geometry">
            <mxPoint x="150" y="20" as="sourcePoint" />
            <mxPoint x="310" y="20" as="targetPoint" />
          </mxGeometry>
        </mxCell>
        <mxCell id="c1LUgHqlMUX5LM21KsU8-8" value="&lt;div&gt;vcan1&lt;/div&gt;" style="shape=delay;whiteSpace=wrap;html=1;" vertex="1" parent="c1LUgHqlMUX5LM21KsU8-22">
          <mxGeometry x="310" y="80" width="80" height="40" as="geometry" />
        </mxCell>
        <mxCell id="c1LUgHqlMUX5LM21KsU8-19" value="" style="endArrow=block;startArrow=block;endFill=1;startFill=1;html=1;rounded=0;exitX=1;exitY=0.5;exitDx=0;exitDy=0;entryX=0;entryY=0.5;entryDx=0;entryDy=0;" edge="1" parent="c1LUgHqlMUX5LM21KsU8-22" source="c1LUgHqlMUX5LM21KsU8-6" target="c1LUgHqlMUX5LM21KsU8-8">
          <mxGeometry width="160" relative="1" as="geometry">
            <mxPoint x="150" y="20" as="sourcePoint" />
            <mxPoint x="310" y="20" as="targetPoint" />
          </mxGeometry>
        </mxCell>
        <mxCell id="c1LUgHqlMUX5LM21KsU8-6" value="CHASSIS_ECU2" style="swimlane;whiteSpace=wrap;html=1;" vertex="1" parent="c1LUgHqlMUX5LM21KsU8-22">
          <mxGeometry x="20" y="110" width="110" height="70" as="geometry" />
        </mxCell>
        <mxCell id="c1LUgHqlMUX5LM21KsU8-23" value="&lt;div&gt;CHASSIS CAN BUS&lt;/div&gt;" style="swimlane;horizontal=0;whiteSpace=wrap;html=1;rotation=-180;" vertex="1" parent="c1LUgHqlMUX5LM21KsU8-1">
          <mxGeometry x="70" y="510" width="490" height="290" as="geometry" />
        </mxCell>
        <mxCell id="c1LUgHqlMUX5LM21KsU8-24" value="&lt;div&gt;POWER_ECU1&lt;/div&gt;" style="swimlane;whiteSpace=wrap;html=1;" vertex="1" parent="c1LUgHqlMUX5LM21KsU8-23">
          <mxGeometry x="20" y="20" width="110" height="70" as="geometry" />
        </mxCell>
        <mxCell id="c1LUgHqlMUX5LM21KsU8-25" value="" style="endArrow=block;startArrow=block;endFill=1;startFill=1;html=1;rounded=0;exitX=1;exitY=0.5;exitDx=0;exitDy=0;entryX=0;entryY=0.5;entryDx=0;entryDy=0;" edge="1" parent="c1LUgHqlMUX5LM21KsU8-23" source="c1LUgHqlMUX5LM21KsU8-24" target="c1LUgHqlMUX5LM21KsU8-26">
          <mxGeometry width="160" relative="1" as="geometry">
            <mxPoint x="150" y="110" as="sourcePoint" />
            <mxPoint x="310" y="110" as="targetPoint" />
          </mxGeometry>
        </mxCell>
        <mxCell id="c1LUgHqlMUX5LM21KsU8-26" value="&lt;div&gt;vcan2&lt;/div&gt;" style="shape=delay;whiteSpace=wrap;html=1;" vertex="1" parent="c1LUgHqlMUX5LM21KsU8-23">
          <mxGeometry x="320" y="125" width="80" height="40" as="geometry" />
        </mxCell>
        <mxCell id="c1LUgHqlMUX5LM21KsU8-27" value="" style="endArrow=block;startArrow=block;endFill=1;startFill=1;html=1;rounded=0;exitX=1;exitY=0.5;exitDx=0;exitDy=0;entryX=0;entryY=0.5;entryDx=0;entryDy=0;" edge="1" parent="c1LUgHqlMUX5LM21KsU8-23" source="c1LUgHqlMUX5LM21KsU8-28" target="c1LUgHqlMUX5LM21KsU8-26">
          <mxGeometry width="160" relative="1" as="geometry">
            <mxPoint x="150" y="110" as="sourcePoint" />
            <mxPoint x="310" y="110" as="targetPoint" />
          </mxGeometry>
        </mxCell>
        <mxCell id="c1LUgHqlMUX5LM21KsU8-28" value="POWER_ECU3" style="swimlane;whiteSpace=wrap;html=1;" vertex="1" parent="c1LUgHqlMUX5LM21KsU8-23">
          <mxGeometry x="20" y="200" width="110" height="70" as="geometry" />
        </mxCell>
        <mxCell id="c1LUgHqlMUX5LM21KsU8-29" value="&lt;div&gt;POWER_ECU2&lt;/div&gt;" style="swimlane;whiteSpace=wrap;html=1;" vertex="1" parent="c1LUgHqlMUX5LM21KsU8-23">
          <mxGeometry x="20" y="110" width="110" height="70" as="geometry" />
        </mxCell>
        <mxCell id="c1LUgHqlMUX5LM21KsU8-34" value="" style="endArrow=block;startArrow=block;endFill=1;startFill=1;html=1;rounded=0;exitX=1;exitY=0.5;exitDx=0;exitDy=0;entryX=0;entryY=0.5;entryDx=0;entryDy=0;" edge="1" parent="c1LUgHqlMUX5LM21KsU8-23" source="c1LUgHqlMUX5LM21KsU8-29" target="c1LUgHqlMUX5LM21KsU8-26">
          <mxGeometry width="160" relative="1" as="geometry">
            <mxPoint x="150" y="60" as="sourcePoint" />
            <mxPoint x="310" y="60" as="targetPoint" />
          </mxGeometry>
        </mxCell>
        <mxCell id="c1LUgHqlMUX5LM21KsU8-36" value="&lt;div&gt;GATEWAY&lt;/div&gt;" style="html=1;whiteSpace=wrap;aspect=fixed;shape=isoRectangle;rotation=90;" vertex="1" parent="c1LUgHqlMUX5LM21KsU8-1">
          <mxGeometry x="570" y="365" width="150" height="90" as="geometry" />
        </mxCell>
        <mxCell id="c1LUgHqlMUX5LM21KsU8-39" value="" style="endArrow=block;startArrow=block;endFill=1;startFill=1;html=1;rounded=0;exitX=1;exitY=0.5;exitDx=0;exitDy=0;entryX=0.008;entryY=0.469;entryDx=0;entryDy=0;entryPerimeter=0;" edge="1" parent="c1LUgHqlMUX5LM21KsU8-1" source="c1LUgHqlMUX5LM21KsU8-7" target="c1LUgHqlMUX5LM21KsU8-36">
          <mxGeometry width="160" relative="1" as="geometry">
            <mxPoint x="520" y="160" as="sourcePoint" />
            <mxPoint x="680" y="160" as="targetPoint" />
          </mxGeometry>
        </mxCell>
        <mxCell id="c1LUgHqlMUX5LM21KsU8-40" value="" style="endArrow=block;startArrow=block;endFill=1;startFill=1;html=1;rounded=0;exitX=1;exitY=0.5;exitDx=0;exitDy=0;" edge="1" parent="c1LUgHqlMUX5LM21KsU8-1" source="c1LUgHqlMUX5LM21KsU8-8" target="c1LUgHqlMUX5LM21KsU8-36">
          <mxGeometry width="160" relative="1" as="geometry">
            <mxPoint x="440" y="410" as="sourcePoint" />
            <mxPoint x="628" y="536" as="targetPoint" />
          </mxGeometry>
        </mxCell>
        <mxCell id="c1LUgHqlMUX5LM21KsU8-41" value="" style="endArrow=block;startArrow=block;endFill=1;startFill=1;html=1;rounded=0;exitX=1;exitY=0.5;exitDx=0;exitDy=0;entryX=0.983;entryY=0.504;entryDx=0;entryDy=0;entryPerimeter=0;" edge="1" parent="c1LUgHqlMUX5LM21KsU8-1" source="c1LUgHqlMUX5LM21KsU8-26" target="c1LUgHqlMUX5LM21KsU8-36">
          <mxGeometry width="160" relative="1" as="geometry">
            <mxPoint x="490" y="650" as="sourcePoint" />
            <mxPoint x="630" y="650" as="targetPoint" />
          </mxGeometry>
        </mxCell>
        <mxCell id="c1LUgHqlMUX5LM21KsU8-21" value="&lt;div&gt;BODY CAN BUS&lt;/div&gt;" style="swimlane;horizontal=0;whiteSpace=wrap;html=1;rotation=-180;" vertex="1" parent="1">
          <mxGeometry x="190" y="330" width="490" height="200" as="geometry" />
        </mxCell>
      </root>
    </mxGraphModel>
  </diagram>
</mxfile>
